<mxfile host="app.diagrams.net" modified="2021-09-27T15:42:37.433Z" agent="5.0 (X11; Linux x86_64) AppleWebKit/537.36 (KHTML, like Gecko) Chrome/91.0.4472.77 Safari/537.36" etag="Ml2aJS8MpsOx2lHw6ziz" version="15.3.2" type="github">
  <diagram id="7t_qfIHVOSUH58203Csp" name="Page-1">
    <mxGraphModel dx="1355" dy="1943" grid="1" gridSize="10" guides="1" tooltips="1" connect="1" arrows="1" fold="1" page="1" pageScale="1" pageWidth="827" pageHeight="1169" math="0" shadow="0">
      <root>
        <mxCell id="0" />
        <mxCell id="1" parent="0" />
        <mxCell id="yI2dMNiLVxZ3sLx99ap7-3" value="" style="edgeStyle=orthogonalEdgeStyle;rounded=0;orthogonalLoop=1;jettySize=auto;html=1;entryX=0;entryY=0.5;entryDx=0;entryDy=0;" edge="1" parent="1" source="yI2dMNiLVxZ3sLx99ap7-1" target="yI2dMNiLVxZ3sLx99ap7-4">
          <mxGeometry relative="1" as="geometry">
            <mxPoint x="560" y="360" as="targetPoint" />
          </mxGeometry>
        </mxCell>
        <mxCell id="yI2dMNiLVxZ3sLx99ap7-1" value="&lt;b&gt;&lt;font style=&quot;font-size: 17px&quot;&gt;REpresentational State Transfer&lt;/font&gt;&lt;/b&gt;" style="rounded=1;whiteSpace=wrap;html=1;gradientColor=#ea6b66;fillColor=#f8cecc;strokeColor=#b85450;" vertex="1" parent="1">
          <mxGeometry x="320" y="320" width="160" height="80" as="geometry" />
        </mxCell>
        <mxCell id="yI2dMNiLVxZ3sLx99ap7-6" value="" style="edgeStyle=orthogonalEdgeStyle;rounded=0;orthogonalLoop=1;jettySize=auto;html=1;" edge="1" parent="1" source="yI2dMNiLVxZ3sLx99ap7-4" target="yI2dMNiLVxZ3sLx99ap7-5">
          <mxGeometry relative="1" as="geometry" />
        </mxCell>
        <mxCell id="yI2dMNiLVxZ3sLx99ap7-11" value="" style="edgeStyle=orthogonalEdgeStyle;rounded=0;orthogonalLoop=1;jettySize=auto;html=1;" edge="1" parent="1" source="yI2dMNiLVxZ3sLx99ap7-4" target="yI2dMNiLVxZ3sLx99ap7-10">
          <mxGeometry relative="1" as="geometry">
            <Array as="points">
              <mxPoint x="650" y="140" />
            </Array>
          </mxGeometry>
        </mxCell>
        <mxCell id="yI2dMNiLVxZ3sLx99ap7-4" value="Definition" style="rounded=1;whiteSpace=wrap;html=1;gradientColor=#d5739d;fillColor=#e6d0de;strokeColor=#996185;" vertex="1" parent="1">
          <mxGeometry x="590" y="330" width="120" height="60" as="geometry" />
        </mxCell>
        <mxCell id="yI2dMNiLVxZ3sLx99ap7-5" value="architectural style of designing distributed applications" style="whiteSpace=wrap;html=1;rounded=0;" vertex="1" parent="1">
          <mxGeometry x="790" y="330" width="250" height="60" as="geometry" />
        </mxCell>
        <mxCell id="yI2dMNiLVxZ3sLx99ap7-7" value="requesting system accesses and manipulates textual representations of&#xa;Web resources by using a uniform and predefined set of stateless&#xa;operations, given a set of constraints." style="whiteSpace=wrap;html=1;rounded=0;" vertex="1" parent="1">
          <mxGeometry x="790" y="390" width="250" height="80" as="geometry" />
        </mxCell>
        <mxCell id="yI2dMNiLVxZ3sLx99ap7-13" value="" style="edgeStyle=orthogonalEdgeStyle;rounded=0;orthogonalLoop=1;jettySize=auto;html=1;" edge="1" parent="1" source="yI2dMNiLVxZ3sLx99ap7-10" target="yI2dMNiLVxZ3sLx99ap7-12">
          <mxGeometry relative="1" as="geometry" />
        </mxCell>
        <mxCell id="yI2dMNiLVxZ3sLx99ap7-10" value="Advantages" style="rounded=1;whiteSpace=wrap;html=1;gradientColor=#7ea6e0;fillColor=#dae8fc;strokeColor=#6c8ebf;" vertex="1" parent="1">
          <mxGeometry x="780" y="110" width="120" height="60" as="geometry" />
        </mxCell>
        <mxCell id="yI2dMNiLVxZ3sLx99ap7-12" value="Client-server architecture and Separation of Client-Server concerns" style="rounded=0;whiteSpace=wrap;html=1;" vertex="1" parent="1">
          <mxGeometry x="980" y="110" width="240" height="60" as="geometry" />
        </mxCell>
        <mxCell id="yI2dMNiLVxZ3sLx99ap7-14" value="Statelessness" style="rounded=0;whiteSpace=wrap;html=1;" vertex="1" parent="1">
          <mxGeometry x="980" y="170" width="240" height="60" as="geometry" />
        </mxCell>
        <mxCell id="yI2dMNiLVxZ3sLx99ap7-15" value="Cacheability" style="rounded=0;whiteSpace=wrap;html=1;" vertex="1" parent="1">
          <mxGeometry x="980" y="50" width="240" height="60" as="geometry" />
        </mxCell>
        <mxCell id="yI2dMNiLVxZ3sLx99ap7-18" value="" style="edgeStyle=orthogonalEdgeStyle;rounded=0;orthogonalLoop=1;jettySize=auto;html=1;" edge="1" parent="1" source="yI2dMNiLVxZ3sLx99ap7-16" target="yI2dMNiLVxZ3sLx99ap7-17">
          <mxGeometry relative="1" as="geometry" />
        </mxCell>
        <mxCell id="yI2dMNiLVxZ3sLx99ap7-16" value="Uniform interface" style="rounded=0;whiteSpace=wrap;html=1;" vertex="1" parent="1">
          <mxGeometry x="980" y="-10" width="240" height="60" as="geometry" />
        </mxCell>
        <mxCell id="yI2dMNiLVxZ3sLx99ap7-17" value="Resource identification in requests" style="rounded=0;whiteSpace=wrap;html=1;" vertex="1" parent="1">
          <mxGeometry x="1300" y="-10" width="240" height="60" as="geometry" />
        </mxCell>
        <mxCell id="yI2dMNiLVxZ3sLx99ap7-19" value="Resource manipulation through representations" style="rounded=0;whiteSpace=wrap;html=1;" vertex="1" parent="1">
          <mxGeometry x="1300" y="-70" width="240" height="60" as="geometry" />
        </mxCell>
        <mxCell id="yI2dMNiLVxZ3sLx99ap7-20" value="Self-descriptive messages" style="rounded=0;whiteSpace=wrap;html=1;" vertex="1" parent="1">
          <mxGeometry x="1300" y="50" width="240" height="60" as="geometry" />
        </mxCell>
        <mxCell id="yI2dMNiLVxZ3sLx99ap7-21" value="Hypermedia as the engine of application state" style="rounded=0;whiteSpace=wrap;html=1;" vertex="1" parent="1">
          <mxGeometry x="1300" y="110" width="240" height="60" as="geometry" />
        </mxCell>
        <mxCell id="yI2dMNiLVxZ3sLx99ap7-22" value="Layered system" style="rounded=0;whiteSpace=wrap;html=1;" vertex="1" parent="1">
          <mxGeometry x="980" y="-70" width="240" height="60" as="geometry" />
        </mxCell>
        <mxCell id="yI2dMNiLVxZ3sLx99ap7-23" value="Code on demand" style="rounded=0;whiteSpace=wrap;html=1;" vertex="1" parent="1">
          <mxGeometry x="980" y="-130" width="240" height="60" as="geometry" />
        </mxCell>
      </root>
    </mxGraphModel>
  </diagram>
</mxfile>
